<?xml version="1.0" standalone="no"?>
<!DOCTYPE svg PUBLIC "-//W3C//DTD SVG 20010904//EN"
 "http://www.w3.org/TR/2001/REC-SVG-20010904/DTD/svg10.dtd">
<svg version="1.0" xmlns="http://www.w3.org/2000/svg"
 width="1002.000000pt" height="1002.000000pt" viewBox="0 0 1002.000000 1002.000000"
 preserveAspectRatio="xMidYMid meet">
<metadata>
Created by potrace 1.14, written by Peter Selinger 2001-2017
</metadata>
<g transform="translate(0.000000,1002.000000) scale(0.100000,-0.100000)"
fill="#000000" stroke="none">
<path d="M5705 10010 c-82 -17 -180 -61 -217 -97 -20 -20 -35 -40 -32 -45 3
-4 1 -8 -3 -8 -8 0 -47 -58 -48 -70 0 -3 -3 -9 -6 -15 -4 -5 -12 -28 -19 -50
-7 -22 -16 -44 -20 -50 -4 -5 -11 -23 -15 -40 -12 -45 -12 -45 -14 -47 -2 -2
-4 -13 -6 -24 -10 -51 -24 -74 -42 -67 -32 12 -108 55 -138 77 -16 13 -55 35
-85 50 -30 15 -62 31 -70 36 -36 21 -179 88 -201 95 -13 4 -37 13 -54 20 -213
93 -496 98 -685 12 -84 -38 -154 -104 -146 -138 0 -3 -7 -13 -16 -23 -9 -9
-15 -23 -12 -31 4 -8 1 -15 -4 -15 -6 0 -9 -9 -7 -20 2 -11 0 -20 -4 -20 -5 0
-7 -16 -5 -35 1 -19 -1 -37 -5 -39 -9 -6 -6 -144 4 -183 3 -15 12 -34 18 -41
6 -8 12 -33 13 -55 1 -23 11 -66 22 -96 12 -29 23 -65 26 -80 8 -41 18 -71 36
-109 10 -20 16 -42 13 -48 -5 -15 -64 -22 -211 -29 -57 -2 -150 -14 -208 -26
-58 -12 -108 -19 -111 -15 -3 3 -14 1 -23 -4 -10 -5 -70 -21 -134 -34 -93 -20
-136 -36 -225 -81 -95 -50 -119 -68 -179 -134 -99 -109 -182 -216 -178 -231 0
-3 -14 -26 -33 -52 -18 -25 -30 -51 -27 -57 4 -6 3 -11 -3 -11 -15 0 -65 -160
-65 -210 -1 -25 -5 -50 -9 -57 -4 -6 -3 -14 3 -18 5 -3 10 -17 10 -31 0 -13 5
-24 10 -24 6 0 10 -6 10 -12 1 -23 70 -109 96 -118 14 -6 23 -14 20 -19 -6 -9
-28 -61 -31 -73 -2 -5 -4 -10 -5 -13 -1 -3 -4 -9 -5 -15 -1 -5 -4 -12 -5 -15
-1 -3 -4 -9 -5 -15 -1 -5 -4 -12 -5 -15 -1 -3 -4 -9 -5 -15 -1 -5 -4 -11 -5
-12 -1 -2 -4 -12 -6 -23 -3 -21 -11 -57 -14 -65 -1 -3 -2 -9 -1 -14 1 -4 -3
-14 -9 -21 -6 -7 -8 -20 -4 -29 3 -9 1 -16 -5 -16 -6 0 -11 -10 -11 -22 -1
-61 -5 -88 -12 -88 -4 0 -7 -10 -7 -22 0 -13 -2 -39 -6 -58 -3 -19 -6 -48 -6
-65 0 -68 11 -283 16 -325 3 -25 7 -70 10 -100 9 -95 11 -109 17 -115 3 -3 4
-19 2 -35 -2 -17 0 -30 5 -30 5 0 8 -14 7 -30 -1 -21 -13 -40 -39 -61 -21 -17
-46 -48 -57 -69 -11 -21 -24 -41 -30 -45 -9 -5 -48 10 -60 24 -9 11 -135 70
-184 86 -132 43 -287 61 -401 46 -44 -6 -116 -15 -159 -21 -73 -9 -166 -47
-166 -68 0 -4 -24 -22 -53 -39 -56 -33 -83 -59 -89 -82 -2 -8 -11 -23 -21 -33
-10 -10 -15 -23 -12 -28 4 -6 1 -10 -4 -10 -6 0 -11 -5 -11 -10 0 -6 -12 -23
-26 -39 -23 -27 -60 -86 -63 -103 0 -5 -1 -9 -2 -10 0 -2 -2 -10 -4 -18 -2 -8
-8 -29 -13 -47 -6 -17 -8 -34 -4 -37 3 -3 1 -6 -5 -6 -12 0 -13 -7 -14 -115
-1 -73 8 -152 19 -170 4 -5 7 -14 8 -20 6 -28 34 -126 39 -134 11 -18 -15 -22
-172 -25 -173 -3 -210 -12 -336 -78 -82 -43 -118 -69 -110 -81 3 -6 2 -7 -4
-4 -11 7 -64 -29 -96 -65 -11 -13 -43 -47 -70 -76 -28 -31 -47 -59 -43 -67 3
-9 0 -12 -10 -8 -8 3 -14 -1 -14 -10 0 -8 -4 -17 -8 -19 -10 -4 -74 -108 -67
-108 3 0 -1 -13 -10 -30 -8 -16 -15 -32 -15 -35 0 -3 0 -6 -1 -7 -1 -4 -9 -36
-12 -50 -1 -7 -5 -17 -8 -23 -4 -5 -5 -18 -4 -27 2 -10 -1 -18 -7 -18 -6 0 -8
-7 -4 -15 3 -8 1 -15 -5 -15 -6 0 -9 -7 -6 -15 4 -8 2 -17 -4 -20 -5 -4 -7
-17 -5 -31 3 -13 1 -24 -3 -24 -10 0 -7 -136 3 -175 10 -35 57 -115 69 -115 4
0 7 -4 7 -9 0 -22 197 -218 222 -222 13 -2 28 -6 31 -9 5 -4 43 -12 67 -14 14
-1 31 -5 38 -9 6 -5 16 -6 21 -2 5 3 13 0 16 -6 4 -5 13 -8 21 -5 7 3 16 1 19
-4 6 -9 12 -10 85 -11 60 -2 110 4 110 13 0 4 11 5 24 2 14 -2 27 0 31 5 3 6
15 8 26 6 12 -3 31 1 43 7 11 7 23 12 26 13 5 0 56 35 88 60 8 5 34 29 59 53
25 23 51 42 58 42 14 0 26 -40 32 -100 2 -19 4 -42 4 -50 1 -8 6 -21 12 -28 5
-6 6 -12 3 -12 -9 0 110 -226 140 -266 32 -44 84 -94 95 -94 6 0 8 -4 5 -9 -9
-14 79 -87 137 -114 29 -14 65 -24 81 -23 16 2 30 -2 33 -9 2 -7 15 -12 29
-10 13 1 41 -6 62 -15 20 -10 44 -21 52 -24 50 -22 55 -30 53 -81 -7 -143 -6
-197 4 -203 10 -7 15 -29 29 -125 4 -20 10 -40 15 -43 5 -3 9 -14 9 -25 0 -10
5 -19 10 -19 6 0 10 -7 10 -15 0 -7 7 -18 16 -23 9 -5 15 -11 14 -13 -4 -10
24 -58 31 -53 5 3 6 -2 3 -10 -3 -9 2 -17 15 -21 11 -3 23 -15 26 -26 4 -11
11 -16 17 -13 7 5 9 1 5 -9 -6 -15 2 -21 24 -19 3 1 12 -10 20 -24 13 -26 104
-74 139 -74 10 0 22 -5 25 -10 4 -6 14 -10 23 -8 10 1 23 -1 30 -6 17 -11 112
-14 118 -4 3 5 10 5 17 1 11 -7 53 -7 117 1 38 4 108 -26 170 -73 19 -15 48
-32 64 -39 25 -11 27 -16 22 -45 -11 -56 -13 -102 -5 -113 5 -6 10 -19 12 -30
2 -10 8 -28 12 -39 4 -11 14 -35 21 -54 8 -18 12 -37 9 -41 -3 -5 4 -28 14
-53 11 -25 17 -48 14 -51 -3 -3 -1 -11 4 -18 6 -7 11 -24 12 -38 1 -34 4 -46
29 -112 12 -32 24 -68 26 -80 10 -50 25 -86 61 -148 21 -36 69 -121 108 -190
38 -69 84 -145 101 -170 17 -25 55 -83 84 -130 30 -47 57 -87 61 -90 4 -3 20
-24 37 -47 118 -163 395 -423 554 -520 25 -15 47 -30 50 -33 10 -10 69 -50 76
-50 3 0 39 -20 79 -44 39 -24 83 -47 96 -51 13 -4 60 -26 104 -49 44 -23 98
-47 120 -55 22 -8 51 -18 65 -24 14 -6 30 -11 35 -12 6 -2 36 -14 67 -29 31
-14 63 -26 71 -26 7 0 17 -3 21 -7 3 -4 14 -8 24 -9 9 -1 40 -7 67 -14 28 -6
61 -14 75 -17 43 -8 55 -11 55 -13 0 -1 16 -3 35 -5 19 -2 46 -6 60 -10 14 -3
34 -8 45 -10 26 -5 52 -11 100 -24 22 -6 43 -9 46 -8 3 1 12 -3 20 -9 8 -6 23
-10 33 -8 11 1 25 0 30 -4 6 -3 31 -7 56 -9 25 -1 65 -4 90 -8 25 -3 79 -7
120 -10 129 -7 213 -14 258 -20 23 -3 42 -2 42 2 0 5 53 10 118 11 155 3 182
5 182 13 0 3 17 6 38 5 20 -1 42 0 47 3 6 3 26 6 45 8 38 2 95 10 95 14 0 1 9
3 20 5 11 1 31 6 45 9 14 4 36 8 50 10 14 2 25 4 25 5 0 2 9 4 20 5 11 2 36 6
55 9 19 3 51 8 70 11 39 6 63 11 100 20 14 3 32 8 40 10 8 2 16 4 18 5 1 2 7
4 12 5 6 1 12 4 15 5 3 1 10 4 15 5 6 1 12 4 15 5 3 1 8 3 13 5 4 1 20 7 35
13 16 7 30 12 32 12 7 0 186 89 230 114 22 13 60 34 85 47 25 14 64 37 87 52
24 15 45 27 48 27 3 0 11 5 18 10 7 6 41 28 77 49 66 39 120 83 329 270 100
89 192 193 309 351 20 26 132 249 132 261 0 4 14 38 31 75 41 87 99 261 91
269 -4 3 -2 9 3 13 6 4 18 32 29 62 10 30 23 66 29 80 6 14 11 27 12 30 7 21
41 99 88 200 12 25 21 50 22 55 0 6 6 20 13 32 7 12 12 30 12 41 0 10 3 22 7
26 4 4 8 23 10 42 1 20 7 41 12 48 6 7 8 15 6 18 -3 3 0 18 6 34 7 16 13 32
14 37 2 4 3 8 5 10 2 3 10 37 14 62 1 11 8 31 15 44 7 13 14 51 15 85 1 55 3
61 21 58 73 -11 204 -3 258 16 31 11 57 19 57 16 0 -2 25 7 56 21 31 14 62 25
69 25 21 0 150 91 161 113 6 12 27 52 48 89 20 37 39 79 42 94 3 15 8 32 12
38 3 6 7 20 8 31 1 11 6 31 10 45 4 14 8 77 10 140 4 160 6 180 16 186 4 3 5
11 1 17 -4 7 -8 32 -9 57 -1 47 -12 108 -23 125 -3 6 -6 12 -7 15 0 3 -7 19
-14 35 -7 17 -14 33 -14 36 -2 12 -53 66 -69 72 -9 3 -14 13 -11 20 5 15 -45
62 -91 87 -19 10 -26 10 -39 -1 -52 -47 -66 -46 -21 1 l26 27 -58 30 c-74 39
-115 52 -183 58 -105 9 -131 13 -145 25 -9 8 -12 17 -7 24 13 17 3 417 -13
506 -3 19 -7 50 -8 68 -1 17 -5 32 -9 32 -4 0 -7 8 -7 18 1 20 -9 97 -12 97
-1 0 -3 25 -4 55 -2 30 -6 66 -9 80 -3 14 -8 37 -11 52 -3 15 -10 39 -15 54
-6 15 -8 29 -5 32 2 3 0 11 -5 18 -6 6 -10 16 -9 20 1 5 -3 23 -10 39 -7 17
-14 35 -15 40 -11 52 -60 156 -92 193 -19 22 -74 117 -97 167 -8 17 -21 36
-30 44 -9 7 -15 17 -12 21 2 4 -4 15 -15 25 -11 10 -20 22 -20 27 0 10 -9 23
-119 171 -40 53 -86 111 -102 128 -16 17 -29 33 -29 35 0 8 -39 45 -135 130
-49 43 -92 81 -95 84 -25 26 -150 120 -158 120 -6 0 -12 4 -14 9 -9 24 -270
213 -360 261 -57 30 -107 55 -113 56 -5 1 -32 15 -60 31 -27 16 -79 41 -115
57 -173 75 -241 108 -275 131 -16 11 -32 19 -35 18 -7 -4 -93 28 -105 39 -5 4
-17 8 -27 8 -10 0 -18 5 -18 10 0 6 -3 9 -7 8 -5 -1 -30 8 -57 20 -27 12 -52
22 -57 22 -18 0 -18 21 1 53 11 19 26 71 32 115 7 45 17 83 22 85 6 2 27 -3
46 -11 91 -40 217 -32 274 17 10 9 21 15 25 15 11 -2 77 60 97 91 10 17 22 33
27 36 11 8 25 69 33 149 19 180 -11 273 -129 397 -37 39 -39 44 -33 85 8 56 9
438 1 460 -4 9 -5 22 -4 29 1 8 -3 27 -10 43 -6 16 -10 31 -7 33 9 9 -82 151
-131 203 -18 19 -33 38 -33 42 0 13 -109 58 -177 74 -47 11 -87 14 -132 9
l-64 -7 5 26 c3 14 2 27 -2 28 -5 2 -10 19 -14 38 -24 149 -79 325 -112 357
-8 8 -14 18 -14 23 0 5 -6 15 -12 22 -14 14 -45 77 -46 92 0 5 -4 12 -9 15 -8
5 -23 32 -70 124 -8 15 -19 27 -24 27 -5 0 -9 5 -9 10 0 16 -77 90 -140 136
-59 44 -166 97 -190 97 -8 -1 -37 5 -65 13 -66 17 -200 25 -250 14z m1370
-1555 c-1 -52 -14 -89 -16 -49 -5 74 -5 101 -1 112 9 26 19 -8 17 -63z m40
-135 c3 -5 -3 -10 -14 -10 -12 0 -21 5 -21 10 0 6 6 10 14 10 8 0 18 -4 21
-10z m135 -595 c0 -8 -4 -15 -10 -15 -5 0 -7 7 -4 15 4 8 8 15 10 15 2 0 4 -7
4 -15z m-427 -162 c-7 -2 -19 -2 -25 0 -7 3 -2 5 12 5 14 0 19 -2 13 -5z
m-1806 -57 c-1 -24 -5 -42 -8 -40 -3 2 -7 -20 -8 -48 -1 -29 -4 -54 -8 -57 -8
-8 3 164 11 178 12 19 14 13 13 -33z m1788 34 c3 -5 1 -10 -4 -10 -6 0 -11 5
-11 10 0 6 2 10 4 10 3 0 8 -4 11 -10z m-1795 -232 c0 -18 -2 -20 -9 -8 -6 8
-7 18 -5 22 9 14 14 9 14 -14z m848 -1665 c-15 -19 -29 -3 -21 26 6 23 7 23
19 6 10 -14 11 -22 2 -32z m-5329 -526 c-2 -1 -12 -9 -22 -16 -15 -12 -17 -12
-11 3 3 9 13 16 22 16 8 0 13 -1 11 -3z m8466 -1177 c3 -5 -1 -10 -10 -10 -9
0 -13 5 -10 10 3 6 8 10 10 10 2 0 7 -4 10 -10z m-374 -873 c-10 -9 -11 -8 -5
6 3 10 9 15 12 12 3 -3 0 -11 -7 -18z m-2591 -1961 c0 -3 -4 -8 -10 -11 -5 -3
-10 -1 -10 4 0 6 5 11 10 11 6 0 10 -2 10 -4z"/>
</g>
</svg>
